<svg id="ICON_Messaging" xmlns="http://www.w3.org/2000/svg" width="95.79" height="96.01" viewBox="0 0 95.79 96.01">
  <path id="Path_8" data-name="Path 8" d="M28.33,8.79V41.47a6.532,6.532,0,0,0,6.52,6.54H60.93L80.5,67.61V48h6.52a6.532,6.532,0,0,0,6.52-6.54V8.79a6.532,6.532,0,0,0-6.52-6.54H34.85A6.532,6.532,0,0,0,28.33,8.79Z" fill="none" stroke="#08b0a0" stroke-linecap="round" stroke-miterlimit="10" stroke-width="4.5"/>
  <path id="Path_9" data-name="Path 9" d="M21.81,28.39H8.77a6.532,6.532,0,0,0-6.52,6.54V67.61a6.532,6.532,0,0,0,6.52,6.54h6.52V93.76L34.85,74.15H60.93a6.532,6.532,0,0,0,6.52-6.54V63.78" fill="none" stroke="#b2b2b2" stroke-linecap="round" stroke-linejoin="round" stroke-miterlimit="10" stroke-width="4.5"/>
</svg>
