<svg id="ICON_Calender" xmlns="http://www.w3.org/2000/svg" width="76.31" height="89.54" viewBox="0 0 76.31 89.54">
  <path id="Path_8" data-name="Path 8" d="M2.25,83.78V15.2a3.828,3.828,0,0,1,3.81-3.84H70.22a3.856,3.856,0,0,1,3.83,3.86V83.45a3.828,3.828,0,0,1-3.81,3.84H5.73A3.5,3.5,0,0,1,2.25,83.78Z" fill="none" stroke="#b2b2b2" stroke-linecap="round" stroke-miterlimit="10" stroke-width="4.5"/>
  <line id="Line_19" data-name="Line 19" y1="9.11" transform="translate(19.98 2.25)" fill="none" stroke="#b2b2b2" stroke-linecap="round" stroke-miterlimit="10" stroke-width="4.5"/>
  <line id="Line_20" data-name="Line 20" y1="9.11" transform="translate(57.43 2.25)" fill="none" stroke="#b2b2b2" stroke-linecap="round" stroke-miterlimit="10" stroke-width="4.5"/>
  <line id="Line_21" data-name="Line 21" x2="71.81" transform="translate(2.25 30.49)" fill="none" stroke="#b2b2b2" stroke-linecap="round" stroke-miterlimit="10" stroke-width="4.5"/>
  <ellipse id="Ellipse_83" data-name="Ellipse 83" cx="4.12" cy="4.13" rx="4.12" ry="4.13" transform="translate(15.86 16.69)" fill="#b2b2b2"/>
  <ellipse id="Ellipse_84" data-name="Ellipse 84" cx="4.12" cy="4.13" rx="4.12" ry="4.13" transform="translate(53.31 16.69)" fill="#b2b2b2"/>
  <g id="Group_184" data-name="Group 184">
    <g id="Group_182" data-name="Group 182">
      <path id="Path_9" data-name="Path 9" d="M21.75,43.87h4.93V72.45" fill="none" stroke="#08b0a0" stroke-linecap="round" stroke-linejoin="round" stroke-miterlimit="10" stroke-width="4.5"/>
      <line id="Line_22" data-name="Line 22" x2="9.51" transform="translate(21.75 72.45)" fill="none" stroke="#08b0a0" stroke-linecap="round" stroke-miterlimit="10" stroke-width="4.5"/>
    </g>
    <g id="Group_183" data-name="Group 183">
      <ellipse id="Ellipse_85" data-name="Ellipse 85" cx="6.64" cy="6.68" rx="6.64" ry="6.68" transform="translate(39.47 42.97)" fill="none" stroke="#08b0a0" stroke-linecap="round" stroke-linejoin="round" stroke-miterlimit="10" stroke-width="4.5"/>
      <ellipse id="Ellipse_86" data-name="Ellipse 86" cx="8.45" cy="8.51" rx="8.45" ry="8.51" transform="translate(37.66 56.33)" fill="none" stroke="#08b0a0" stroke-linecap="round" stroke-linejoin="round" stroke-miterlimit="10" stroke-width="4.5"/>
    </g>
  </g>
</svg>
