<svg id="ICON_Time_Registration" data-name="ICON_Time Registration" xmlns="http://www.w3.org/2000/svg" width="98.16" height="107.16" viewBox="0 0 98.16 107.16">
  <path id="Path_8" data-name="Path 8" d="M49.6,85.79H6.21a3.956,3.956,0,0,1-3.96-3.96V15.6a3.956,3.956,0,0,1,3.96-3.96H72.45a3.956,3.956,0,0,1,3.96,3.96V60.1" fill="none" stroke="#b2b2b2" stroke-miterlimit="10" stroke-width="4.5"/>
  <line id="Line_19" data-name="Line 19" y1="9.39" transform="translate(20.56 2.25)" fill="none" stroke="#b2b2b2" stroke-linecap="round" stroke-miterlimit="10" stroke-width="4.5"/>
  <line id="Line_20" data-name="Line 20" y1="9.39" transform="translate(59.23 2.25)" fill="none" stroke="#b2b2b2" stroke-linecap="round" stroke-miterlimit="10" stroke-width="4.5"/>
  <ellipse id="Ellipse_83" data-name="Ellipse 83" cx="19.5" cy="18.93" rx="19.5" ry="18.93" transform="translate(56.91 67.05)" fill="none" stroke="#08b0a0" stroke-linecap="round" stroke-miterlimit="10" stroke-width="4.5"/>
  <line id="Line_21" data-name="Line 21" x1="8.05" y1="7.72" transform="translate(68.36 78.26)" fill="none" stroke="#08b0a0" stroke-linecap="round" stroke-miterlimit="10" stroke-width="3"/>
  <line id="Line_22" data-name="Line 22" y1="5.95" x2="6.22" transform="translate(76.41 80.03)" fill="none" stroke="#08b0a0" stroke-linecap="round" stroke-miterlimit="10" stroke-width="3"/>
  <ellipse id="Ellipse_84" data-name="Ellipse 84" cx="2.39" cy="2.32" rx="2.39" ry="2.32" transform="translate(74.02 83.66)" fill="#08b0a0"/>
  <line id="Line_23" data-name="Line 23" x2="74.16" transform="translate(2.25 31.35)" fill="none" stroke="#b2b2b2" stroke-linecap="round" stroke-miterlimit="10" stroke-width="4.5"/>
  <circle id="Ellipse_85" data-name="Ellipse 85" cx="4.25" cy="4.25" r="4.25" transform="translate(16.31 17.14)" fill="#b2b2b2"/>
  <circle id="Ellipse_86" data-name="Ellipse 86" cx="4.25" cy="4.25" r="4.25" transform="translate(54.98 17.14)" fill="#b2b2b2"/>
</svg>
