<svg id="mail_icon" data-name="mail icon" xmlns="http://www.w3.org/2000/svg" width="28" height="24" viewBox="0 0 28 24">
  <path id="Path_410" data-name="Path 410" d="M27,4.5a.99.99,0,0,0-1,1v12H2V5.5a.99.99,0,0,0-1-1,.99.99,0,0,0-1,1v13a.99.99,0,0,0,1,1H27a.99.99,0,0,0,1-1V5.5A.99.99,0,0,0,27,4.5Z" transform="translate(0 4.5)" fill="#08b0a0"/>
  <path id="Path_411" data-name="Path 411" d="M27,0H1A.99.99,0,0,0,0,1V5a1.009,1.009,0,0,0,.46.84l13,8.12a.939.939,0,0,0,.54.16.991.991,0,0,0,.52-.16l13-8.12A.982.982,0,0,0,28,5V1A.99.99,0,0,0,27,0ZM26,4.44l-12,7.5L2,4.44V2H26Z" fill="#08b0a0"/>
</svg>
