<svg xmlns="http://www.w3.org/2000/svg" width="170" height="170" viewBox="0 0 170 170">
  <g id="Group_540" data-name="Group 540" transform="translate(-235 -4937)">
    <circle id="Ellipse_241" data-name="Ellipse 241" cx="85" cy="85" r="85" transform="translate(235 4937)" fill="#08b0a0"/>
    <g id="Group_539" data-name="Group 539" transform="translate(273 4977)">
      <path id="Path_428" data-name="Path 428" d="M8,57.5H88a6,6,0,0,1,6,6v8H2v-8A6,6,0,0,1,8,57.5Z" fill="none" stroke="#fff" stroke-linecap="round" stroke-linejoin="round" stroke-miterlimit="10" stroke-width="4"/>
      <path id="Path_429" data-name="Path 429" d="M51.78,15.26H44.21c-19,0-35.65,9.27-40.67,22.65h0a23.2,23.2,0,0,0-1.5,8.13h0C2.04,48.23,4.47,50,7.46,50H88.53c3,0,5.42-1.77,5.42-3.96h0a22.934,22.934,0,0,0-1.5-8.13h0C87.44,24.54,70.78,15.26,51.78,15.26Z" fill="none" stroke="#fff" stroke-linecap="round" stroke-linejoin="round" stroke-miterlimit="10" stroke-width="4"/>
      <path id="Path_430" data-name="Path 430" d="M59.42,8.67H36.58A6.675,6.675,0,0,1,43.25,2h9.49a6.677,6.677,0,0,1,6.68,6.67Z" fill="none" stroke="#fff" stroke-linecap="round" stroke-linejoin="round" stroke-miterlimit="10" stroke-width="4"/>
      <rect id="Rectangle_586" data-name="Rectangle 586" width="8" height="6" transform="translate(44 9.67)" fill="#fff"/>
    </g>
  </g>
</svg>
